<svg width="61" height="26" viewBox="0 0 61 26" fill="none" xmlns="http://www.w3.org/2000/svg">
<g opacity="0.18" clip-path="url(#clip0_213_23078)">
<path d="M53.3687 14.1854L52.1421 11.4121C51.2888 11.9988 50.9688 12.3721 50.9688 12.3721L52.3021 14.9854C52.3021 14.9321 52.8354 14.5054 53.3687 14.1854Z" fill="#574309"/>
<path d="M49.8442 10.1328L48.9375 8.31944C49.3642 7.83944 50.3242 7.09277 50.3242 7.09277L51.1775 9.01277C51.1242 9.01277 50.4308 9.49277 49.8442 10.1328Z" fill="#574309"/>
<path d="M47.504 5.54567L44.8906 0.479004H47.4506L48.9973 4.10567V4.15901C49.0506 4.21234 48.2506 4.74567 47.504 5.54567Z" fill="#574309"/>
<path d="M55.1336 20.3725L53.3203 16.8525C53.3203 16.8525 53.6936 16.4792 54.227 16.1592L55.667 19.4658C55.6136 19.4658 55.347 19.8925 55.1336 20.3725Z" fill="#574309"/>
<path d="M55.8281 21.8127L57.4281 24.906H57.9615L56.3081 21.0127C56.3081 21.0127 56.0415 21.2794 55.8281 21.8127Z" fill="#574309"/>
<path d="M59.3956 18.9858C58.969 19.3058 58.3823 19.5725 57.5823 19.7858L57.4756 19.8392C57.4756 19.8392 57.209 19.9458 56.5156 20.7992C56.569 20.7992 56.569 20.7992 56.569 20.7992C58.3823 20.6925 59.8756 20.3192 60.4623 19.8392C60.5156 19.7858 60.5156 19.8392 60.5156 19.7858C60.3556 19.3058 60.0356 18.9858 59.3956 18.9858Z" fill="#574309"/>
<path d="M60.4647 10.5058C59.7714 11.4125 57.2114 12.0525 54.1714 12.1591C53.5847 12.1591 53.2647 12.1591 52.7314 12.1591H52.678L52.3047 11.2525C52.3047 11.2525 52.5714 11.0925 52.838 10.9325C53.2114 10.9325 53.4247 10.9325 53.798 10.9325C56.358 10.8258 58.0114 10.1858 58.8114 9.43914C58.8114 9.3858 60.038 9.65247 60.4647 10.5058Z" fill="#574309"/>
<path d="M49.4744 10.5056C48.8344 10.3456 48.1944 10.1856 47.7677 9.97228L47.661 9.91895C47.661 9.91895 47.2877 10.5056 47.2344 11.0923L47.341 11.1456C47.7144 11.3589 48.0344 11.4656 48.5677 11.6256C48.8344 11.2523 49.2077 10.7723 49.4744 10.5056Z" fill="#574309"/>
<path d="M55.0219 20.6396L54.6485 19.9463C54.5952 19.9463 54.5952 19.9463 54.5419 19.9463C53.3152 19.8396 52.2485 19.6263 51.6085 19.3063C51.5552 19.2529 51.6085 19.3063 51.5552 19.2529C51.3419 19.7863 51.4485 19.9996 51.4485 20.0529C51.4485 20.0529 51.3952 20.0529 51.5019 20.0529C52.2485 20.4263 53.5285 20.6929 55.0219 20.6396Z" fill="#574309"/>
<path d="M54.3906 16.0527L54.7106 16.7994C54.8706 16.7994 55.0306 16.7994 55.1906 16.7994C57.8573 16.7994 59.9373 16.266 60.524 15.5193C60.044 14.7727 59.1906 14.666 59.0306 14.666C58.3373 15.2527 56.844 15.7327 54.8173 15.7327C54.8706 15.786 54.7106 15.8393 54.3906 16.0527Z" fill="#574309"/>
<path d="M51.7696 15.4657C50.7029 15.2524 50.0096 14.9857 49.4229 14.6124C49.3696 14.5591 49.4229 14.6124 49.3696 14.5591C49.1563 15.0924 49.1562 15.4124 49.1562 15.6257C49.2096 15.6791 49.1562 15.6257 49.2096 15.6791C49.6896 15.9457 50.1696 16.2124 51.0229 16.4257C51.4496 15.7857 51.5563 15.7324 51.7696 15.4657Z" fill="#574309"/>
<path d="M49.0005 15.1989C49.2139 13.4389 51.1872 11.3589 53.9605 10.0789C56.8939 8.74558 59.6672 8.85225 60.5205 10.1856L60.5739 10.2923C60.7872 9.70558 60.8405 9.06558 60.7339 8.58558C60.2005 6.61225 56.9472 6.29225 53.4805 7.89225C50.0139 9.49225 47.6672 12.3723 48.2005 14.3456C48.3072 14.8256 48.6272 15.1989 49.0005 15.4656V15.1989Z" fill="#574309"/>
<path d="M60.6226 15.3063L60.6759 15.3596C60.8359 14.8263 60.8893 14.3463 60.7293 13.9196C60.2493 12.3196 57.5293 12.1596 54.7026 13.5463C51.8759 14.9329 50.0093 17.3863 50.4893 19.0396C50.5959 19.4129 50.8626 19.7329 51.1826 19.9463V19.7863C51.3426 18.3463 52.8893 16.4796 55.1826 15.3596C57.5293 14.1863 59.8226 14.1863 60.6226 15.3063Z" fill="#574309"/>
<path d="M60.6252 19.5191C60.7319 19.1991 60.7852 18.8257 60.7319 18.4524C60.4652 17.1724 59.0252 16.9591 57.4252 18.0257C55.8252 19.0391 54.7585 20.9057 55.0252 22.1857C55.0785 22.5057 55.1852 22.7191 55.3985 22.8791V22.7724C55.5052 21.6524 56.4119 20.2657 57.6385 19.4124C58.9719 18.5591 60.2519 18.6124 60.6252 19.5191Z" fill="#574309"/>
<path d="M57.6996 2.93363C57.6996 2.93363 57.6463 2.82697 57.5929 2.66697C57.5396 2.5603 57.4863 2.50697 57.4863 2.50697C57.3263 2.2403 56.6329 2.2403 55.9929 2.18697C55.6729 2.18697 55.0329 1.97363 54.7663 1.97363C54.3929 1.97363 54.2329 1.97363 54.0196 2.02697C53.8063 2.0803 53.1663 2.34697 52.9529 2.45363L52.7929 2.50697C48.2063 4.21363 45.3796 7.6803 46.0729 9.81364C46.2329 10.2936 46.6063 10.7203 47.1396 11.0403H47.1929C47.4596 9.1203 50.0196 6.50697 53.6463 5.1203L53.7529 5.06697C54.1263 4.9603 54.0729 5.06697 54.4463 5.06697C54.9263 5.06697 54.9263 5.01363 55.6729 4.74697L57.2729 4.1603C57.2729 4.1603 57.5929 4.05363 57.7529 3.78697C57.8596 3.57363 57.7529 3.25363 57.6996 2.93363ZM54.5529 2.8803C54.1263 3.0403 53.9129 2.7203 53.9129 2.7203V2.66697C54.2329 2.4003 54.6596 2.4003 54.7663 2.34697C54.8196 2.66697 54.7129 2.82697 54.5529 2.8803Z" fill="#574309"/>
<path d="M6.59667 6.6665H9.47667L15.77 19.6798H13.1033L11.77 16.6932H4.30334L2.91667 19.6798H0.25L6.59667 6.6665ZM10.7567 14.5065L8.03667 8.69317L5.31667 14.5065H10.7567Z" fill="#574309"/>
<path d="M19.1761 9.81317L19.1228 19.6798H16.8828V6.6665H20.2961L24.3495 16.3198L28.4562 6.6665H31.7628V19.6798H29.5228V9.81317H29.4695L25.3628 19.6798H23.3361L19.1761 9.81317Z" fill="#574309"/>
<path d="M39.2842 6.6665H42.1642L48.4575 19.6798H45.7908L44.4575 16.6932H36.9908L35.6042 19.6798H32.9375L39.2842 6.6665ZM43.4442 14.5065L40.7242 8.69317L38.0042 14.5065H43.4442Z" fill="#574309"/>
</g>
<defs>
<clipPath id="clip0_213_23078">
<rect width="60.8" height="25.0667" fill="white"/>
</clipPath>
</defs>
</svg>
