<svg width="30" height="32" viewBox="0 0 30 32" fill="none" xmlns="http://www.w3.org/2000/svg">
<path d="M21.7642 12.2716C24.2654 12.2716 26.3001 10.237 26.3001 7.73583V4.70451C26.3001 2.20339 24.2654 0.168701 21.7642 0.168701H8.2365C5.73537 0.168701 3.70068 2.20339 3.70068 4.70451V7.73689C3.70068 10.238 5.73537 12.2727 8.2365 12.2727H11.4251L13.7116 14.7473C14.0431 15.1053 14.5127 15.3104 15.0004 15.3104C15.4881 15.3104 15.9577 15.1053 16.2892 14.7473L18.5757 12.2727L21.7642 12.2716ZM17.4547 10.6662L15.0004 13.3225L12.546 10.6662C12.3654 10.4696 12.1104 10.3591 11.8437 10.3591H8.2365C6.79043 10.3591 5.61318 9.18189 5.61318 7.73583V4.70451C5.61318 3.25845 6.78937 2.0812 8.2365 2.0812H21.7632C23.2092 2.0812 24.3865 3.25739 24.3865 4.70451V7.73689C24.3865 9.18295 23.2103 10.3602 21.7632 10.3602H18.156C17.8904 10.3591 17.6354 10.4707 17.4547 10.6662Z" fill="#84723F"/>
<path d="M10.8565 5.2644H10.5026C9.97457 5.2644 9.54639 5.69259 9.54639 6.22065C9.54639 6.74872 9.97457 7.1769 10.5026 7.1769H10.8565C11.3845 7.1769 11.8127 6.74872 11.8127 6.22065C11.8127 5.69259 11.3845 5.2644 10.8565 5.2644Z" fill="#84723F"/>
<path d="M15.1767 5.2644H14.8239C14.2959 5.2644 13.8677 5.69259 13.8677 6.22065C13.8677 6.74872 14.2959 7.1769 14.8239 7.1769H15.1767C15.7047 7.1769 16.1329 6.74872 16.1329 6.22065C16.1329 5.69259 15.7047 5.2644 15.1767 5.2644Z" fill="#84723F"/>
<path d="M19.4965 5.2644H19.1437C18.6157 5.2644 18.1875 5.69259 18.1875 6.22065C18.1875 6.74872 18.6157 7.1769 19.1437 7.1769H19.4976C20.0256 7.1769 20.4538 6.74872 20.4538 6.22065C20.4538 5.69259 20.0246 5.2644 19.4965 5.2644Z" fill="#84723F"/>
<path d="M26.7866 23.9665C27.7163 23.0719 28.3007 21.8213 28.3007 20.4316C28.3007 17.7211 26.0949 15.5154 23.3845 15.5154C20.674 15.5154 18.4683 17.7211 18.4683 20.4316C18.4683 21.8213 19.0527 23.0719 19.9824 23.9665C18.1591 24.8314 16.8862 26.6748 16.8862 28.8232V29.4564C16.8862 30.3872 17.5471 31.1894 18.4577 31.3626C20.078 31.6728 21.7355 31.8301 23.3834 31.8301C25.0314 31.8301 26.6889 31.6728 28.3092 31.3626C29.2197 31.1883 29.8806 30.3872 29.8806 29.4564V28.8232C29.8827 26.6759 28.6099 24.8314 26.7866 23.9665ZM23.3855 17.4279C25.042 17.4279 26.3892 18.7751 26.3892 20.4316C26.3892 22.088 25.042 23.4353 23.3855 23.4353C21.7291 23.4353 20.3819 22.088 20.3819 20.4316C20.3819 18.7751 21.7291 17.4279 23.3855 17.4279ZM27.9522 29.4851C25.1663 30.0185 22.2816 30.0344 19.4809 29.5797C19.2535 29.5404 19.0261 29.5043 18.7998 29.4564V28.8232C18.7998 26.9064 20.3585 25.3478 22.2752 25.3478H24.4948C26.4115 25.3478 27.9702 26.9064 27.9702 28.8232L27.9522 29.4851Z" fill="#84723F"/>
<path d="M10.0171 23.9665C10.9468 23.0719 11.5311 21.8213 11.5311 20.4316C11.5311 17.7211 9.32539 15.5154 6.61495 15.5154C3.90451 15.5154 1.69876 17.7211 1.69876 20.4316C1.69876 21.8213 2.28314 23.0719 3.21282 23.9665C1.38957 24.8314 0.116699 26.6748 0.116699 28.8232V29.4564C0.116699 30.3872 0.777574 31.1894 1.68814 31.3626C3.30845 31.6728 4.96595 31.8301 6.61389 31.8301C8.26182 31.8301 9.91932 31.6728 11.5396 31.3626C12.4502 31.1883 13.1111 30.3872 13.1111 29.4564V28.8232C13.1132 26.6759 11.8403 24.8314 10.0171 23.9665ZM6.61495 17.4279C8.27139 17.4279 9.61864 18.7751 9.61864 20.4316C9.61864 22.088 8.27139 23.4353 6.61495 23.4353C4.95851 23.4353 3.61126 22.088 3.61126 20.4316C3.61126 18.7751 4.95851 17.4279 6.61495 17.4279ZM11.1826 29.4851C8.39676 30.0185 5.51207 30.0344 2.71132 29.5797C2.48395 29.5404 2.25657 29.5043 2.03026 29.4564V28.8232C2.03026 26.9064 3.58895 25.3478 5.5057 25.3478H7.72526C9.64201 25.3478 11.2007 26.9064 11.2007 28.8232L11.1826 29.4851Z" fill="#84723F"/>
</svg>
