<svg width="30" height="30" viewBox="0 0 30 30" fill="none" xmlns="http://www.w3.org/2000/svg">
<path d="M25.5645 4.43555C22.7344 1.60553 18.9903 0 15 0C6.75838 0 0 6.74508 0 15C0 23.2593 6.74268 30 15 30C23.2211 30 30 23.2858 30 15C30 11.0097 28.3945 7.26557 25.5645 4.43555ZM15 26.4258C8.68441 26.4258 3.57422 21.329 3.57422 15C3.57422 12.539 4.34766 10.2011 5.77148 8.26752L21.7325 24.2109C19.7988 25.6523 17.461 26.4258 15 26.4258ZM24.2109 21.7324L8.26752 5.77148C10.2012 4.34766 12.539 3.57422 15 3.57422C21.3158 3.57422 26.4258 8.671 26.4258 15C26.4258 17.4609 25.6523 19.7988 24.2109 21.7324Z" fill="#84723F"/>
</svg>
