<svg width="34" height="34" viewBox="0 0 34 34" fill="none" xmlns="http://www.w3.org/2000/svg">
<mask id="mask0_3_564" style="mask-type:luminance" maskUnits="userSpaceOnUse" x="0" y="0" width="34" height="34">
<path d="M0 3.8147e-06H34V34H0V3.8147e-06Z" fill="white"/>
</mask>
<g mask="url(#mask0_3_564)">
<path d="M31.6718 22.6488L22.1547 32.1659C21.7448 32.5758 21.2384 32.8757 20.6821 33.0383L19.2681 33.4513C18.34 33.7224 17.4788 32.8611 17.7499 31.9331L18.1629 30.5191C18.3254 29.9628 18.6255 29.4563 19.0352 29.0465L28.5524 19.5294C29.22 18.8618 30.3023 18.8618 30.9698 19.5294L31.6718 20.2314C32.3393 20.8989 32.3393 21.9812 31.6718 22.6488Z" stroke="#84723F" stroke-width="1.3" stroke-miterlimit="10" stroke-linecap="round" stroke-linejoin="round"/>
<path d="M6.06787 30.1451H18.2967" stroke="#84723F" stroke-width="1.3" stroke-miterlimit="10" stroke-linecap="round" stroke-linejoin="round"/>
<path d="M25.0376 2.5374C24.7328 1.3642 23.6666 0.498134 22.398 0.498134H4.55516C3.049 0.498134 1.82812 1.71908 1.82812 3.22517V27.4181C1.82812 28.6405 2.63237 29.675 3.74056 30.0215" stroke="#84723F" stroke-width="1.3" stroke-miterlimit="10" stroke-linecap="round" stroke-linejoin="round"/>
<path d="M25.125 22.9565V4.89145" stroke="#84723F" stroke-width="1.3" stroke-miterlimit="10" stroke-linecap="round" stroke-linejoin="round"/>
<path d="M22.9888 28.2122L24.5461 26.6549" stroke="#84723F" stroke-width="1.3" stroke-miterlimit="10" stroke-linecap="round" stroke-linejoin="round"/>
<path d="M9.05485 23.741C9.05485 24.6711 8.3008 25.4252 7.37065 25.4252C6.44057 25.4252 5.68652 24.6711 5.68652 23.741C5.68652 22.8108 6.44057 22.0568 7.37065 22.0568C8.3008 22.0568 9.05485 22.8108 9.05485 23.741Z" stroke="#84723F" stroke-width="1.3" stroke-miterlimit="10" stroke-linecap="round" stroke-linejoin="round"/>
<path d="M12.7095 23.741H20.8017" stroke="#84723F" stroke-width="1.3" stroke-miterlimit="10" stroke-linecap="round" stroke-linejoin="round"/>
<path d="M9.05485 17.4459C9.05485 18.376 8.3008 19.13 7.37065 19.13C6.44057 19.13 5.68652 18.376 5.68652 17.4459C5.68652 16.5157 6.44057 15.7617 7.37065 15.7617C8.3008 15.7617 9.05485 16.5157 9.05485 17.4459Z" stroke="#84723F" stroke-width="1.3" stroke-miterlimit="10" stroke-linecap="round" stroke-linejoin="round"/>
<path d="M12.7095 17.4459H20.8017" stroke="#84723F" stroke-width="1.3" stroke-miterlimit="10" stroke-linecap="round" stroke-linejoin="round"/>
<path d="M12.7095 11.1508H20.8017" stroke="#84723F" stroke-width="1.3" stroke-miterlimit="10" stroke-linecap="round" stroke-linejoin="round"/>
<path d="M5.32031 11.0158L6.49039 12.1859L9.4217 9.25461" stroke="#84723F" stroke-width="1.3" stroke-miterlimit="10" stroke-linecap="round" stroke-linejoin="round"/>
<path d="M18.5349 6.60425H8.4187C7.68856 6.60425 7.09668 6.0123 7.09668 5.28217V4.13155C7.09668 3.40141 7.68856 2.80946 8.4187 2.80946H18.5349C19.265 2.80946 19.8569 3.40141 19.8569 4.13155V5.28217C19.8569 6.0123 19.265 6.60425 18.5349 6.60425Z" stroke="#84723F" stroke-width="1.3" stroke-miterlimit="10" stroke-linecap="round" stroke-linejoin="round"/>
<path d="M21.3501 32.7627L18.4385 29.851" stroke="#84723F" stroke-width="1.3" stroke-miterlimit="10" stroke-linecap="round" stroke-linejoin="round"/>
<path d="M26.9873 21.0943L30.1067 24.2136" stroke="#84723F" stroke-width="1.3" stroke-miterlimit="10" stroke-linecap="round" stroke-linejoin="round"/>
<path d="M28.2073 26.113L25.0879 22.9936" stroke="#84723F" stroke-width="1.3" stroke-miterlimit="10" stroke-linecap="round" stroke-linejoin="round"/>
</g>
</svg>
