<svg width="32" height="32" viewBox="0 0 32 32" fill="none" xmlns="http://www.w3.org/2000/svg">
<path fill-rule="evenodd" clip-rule="evenodd" d="M13.0925 0.263775C14.0363 0.0904083 15.0081 0 16 0C24.8365 0 32 7.16344 32 16C32 24.8365 24.8365 32 16 32C15.0081 32 14.0363 31.9096 13.0925 31.7363C12.3682 31.6032 11.8889 30.9083 12.0219 30.184C12.155 29.4597 12.85 28.9804 13.5743 29.1135C14.3599 29.2577 15.1705 29.3333 16 29.3333C23.3637 29.3333 29.3333 23.3637 29.3333 16C29.3333 8.6362 23.3637 2.66667 16 2.66667C15.1705 2.66667 14.3599 2.74225 13.5743 2.88656C12.85 3.0196 12.155 2.54032 12.0219 1.81605C11.8889 1.09179 12.3682 0.396811 13.0925 0.263775ZM9.82081 2.62784C10.1895 3.26525 9.97172 4.08089 9.33431 4.44961C7.51537 5.5018 5.96731 6.97188 4.82213 8.72823C4.41995 9.34508 3.59385 9.51909 2.97701 9.11689C2.36016 8.71471 2.18616 7.88861 2.58835 7.27177C3.96144 5.16584 5.81696 3.40359 7.99903 2.14133C8.63644 1.7726 9.45208 1.99043 9.82081 2.62784ZM23.5825 11.031C24.1177 11.5368 24.1415 12.3807 23.6357 12.9159L15.0583 21.9909C14.2067 22.8919 12.7933 22.8919 11.9417 21.9909L8.36433 18.206C7.85851 17.6708 7.88231 16.8269 8.41747 16.3211C8.95264 15.8153 9.79652 15.8391 10.3023 16.3743L13.5 19.7575L21.6976 11.0841C22.2035 10.549 23.0473 10.5252 23.5825 11.031ZM2.0156 11.3679C2.73287 11.5346 3.1792 12.2512 3.01251 12.9685C2.78647 13.9411 2.66667 14.9557 2.66667 16C2.66667 17.0443 2.78647 18.0589 3.01251 19.0315C3.1792 19.7488 2.73287 20.4653 2.0156 20.632C1.29834 20.7988 0.581752 20.3524 0.415057 19.6352C0.143349 18.466 0 17.2489 0 16C0 14.7511 0.143349 13.534 0.415057 12.3648C0.581752 11.6476 1.29834 11.2013 2.0156 11.3679ZM2.97701 22.8831C3.59385 22.4809 4.41995 22.6549 4.82213 23.2717C5.96731 25.0281 7.51537 26.4981 9.33431 27.5504C9.97172 27.9191 10.1895 28.7348 9.82081 29.3721C9.45208 30.0096 8.63644 30.2273 7.99903 29.8587C5.81696 28.5964 3.96144 26.8341 2.58835 24.7283C2.18616 24.1113 2.36016 23.2853 2.97701 22.8831Z" fill="#84723F"/>
</svg>
