<svg width="97" height="97" viewBox="0 0 97 97" fill="none" xmlns="http://www.w3.org/2000/svg">
<circle opacity="0.34" cx="48.5" cy="48.5" r="48.5" fill="white"/>
<path d="M18.7002 48.8215C18.7002 32.5604 31.8817 19.3789 48.1428 19.3789C50.2303 19.3789 52.2677 19.5968 54.2345 20.0105C54.5785 20.0829 54.8946 20.2523 55.1454 20.4987C55.3961 20.7452 55.571 21.0583 55.6494 21.401C55.7278 21.7437 55.7063 22.1017 55.5876 22.4327C55.4688 22.7636 55.2578 23.0536 54.9794 23.2683C53.7822 24.1913 52.8672 25.4308 52.3378 26.8467C51.8084 28.2626 51.6857 29.7984 51.9836 31.2804C52.2815 32.7624 52.9881 34.1315 54.0235 35.2328C55.059 36.3342 56.3819 37.1239 57.8427 37.5126C58.6008 37.7128 59.1485 38.3694 59.2088 39.1496C59.339 40.8067 59.976 42.3836 61.0334 43.6661C62.0907 44.9486 63.5172 45.8747 65.1191 46.3184C66.7209 46.7622 68.4206 46.7022 69.9872 46.1465C71.5537 45.5909 72.9114 44.5666 73.8756 43.2127C74.0873 42.9161 74.3822 42.689 74.723 42.5601C75.0638 42.4313 75.4352 42.4065 75.7901 42.489C76.145 42.5714 76.4675 42.7574 76.7166 43.0233C76.9657 43.2892 77.1302 43.6231 77.1894 43.9826C77.4514 45.5598 77.5834 47.1727 77.5854 48.8215C77.5854 65.0827 64.404 78.2641 48.1428 78.2641C31.8817 78.2641 18.7002 65.0827 18.7002 48.8215ZM48.1428 23.0592C33.9147 23.0592 22.3805 34.5934 22.3805 48.8215C22.3805 63.0497 33.9147 74.5838 48.1428 74.5838C62.3709 74.5838 73.9051 63.0497 73.9051 48.8215C73.9051 48.6331 73.9031 48.4456 73.8992 48.2592C72.2812 49.3577 70.4152 50.0362 68.4695 50.2333C66.5239 50.4305 64.5597 50.1401 62.7542 49.3884C60.9488 48.6367 59.3589 47.4474 58.128 45.9277C56.8971 44.408 56.064 42.6058 55.7037 40.6836C54.0524 40.0503 52.5648 39.0533 51.3515 37.7665C50.1381 36.4798 49.2301 34.9364 48.6947 33.2507C48.1593 31.5651 48.0103 29.7806 48.2588 28.0295C48.5074 26.2785 49.1469 24.6059 50.1302 23.1358C49.4689 23.0854 48.806 23.0599 48.1428 23.0592ZM51.0871 48.8215C51.0871 49.6024 50.7769 50.3513 50.2247 50.9034C49.6726 51.4556 48.9237 51.7658 48.1428 51.7658C47.3619 51.7658 46.6131 51.4556 46.0609 50.9034C45.5087 50.3513 45.1985 49.6024 45.1985 48.8215C45.1985 48.0406 45.5087 47.2918 46.0609 46.7396C46.6131 46.1875 47.3619 45.8773 48.1428 45.8773C48.9237 45.8773 49.6726 46.1875 50.2247 46.7396C50.7769 47.2918 51.0871 48.0406 51.0871 48.8215ZM36.3658 63.5428C37.1466 63.5428 37.8955 63.2326 38.4477 62.6805C38.9998 62.1283 39.31 61.3794 39.31 60.5986C39.31 59.8177 38.9998 59.0688 38.4477 58.5167C37.8955 57.9645 37.1466 57.6543 36.3658 57.6543C35.5849 57.6543 34.836 57.9645 34.2839 58.5167C33.7317 59.0688 33.4215 59.8177 33.4215 60.5986C33.4215 61.3794 33.7317 62.1283 34.2839 62.6805C34.836 63.2326 35.5849 63.5428 36.3658 63.5428ZM36.3658 39.9887C36.3658 40.7696 36.0556 41.5185 35.5034 42.0706C34.9512 42.6228 34.2024 42.933 33.4215 42.933C32.6406 42.933 31.8917 42.6228 31.3396 42.0706C30.7874 41.5185 30.4772 40.7696 30.4772 39.9887C30.4772 39.2079 30.7874 38.459 31.3396 37.9068C31.8917 37.3547 32.6406 37.0445 33.4215 37.0445C34.2024 37.0445 34.9512 37.3547 35.5034 37.9068C36.0556 38.459 36.3658 39.2079 36.3658 39.9887ZM56.9756 66.4871C57.7565 66.4871 58.5053 66.1769 59.0575 65.6247C59.6096 65.0726 59.9198 64.3237 59.9198 63.5428C59.9198 62.762 59.6096 62.0131 59.0575 61.4609C58.5053 60.9088 57.7565 60.5986 56.9756 60.5986C56.1947 60.5986 55.4458 60.9088 54.8937 61.4609C54.3415 62.0131 54.0313 62.762 54.0313 63.5428C54.0313 64.3237 54.3415 65.0726 54.8937 65.6247C55.4458 66.1769 56.1947 66.4871 56.9756 66.4871Z" fill="#5E480A"/>
</svg>
